Coordinates
version=1
nRows=8
nColumns=42
inDegrees=yes

Units are S.I. units (second, meters, Newtons, ...)
If the header above contains a line with 'inDegrees', this indicates whether rotational values are in degrees (yes) or radians (no).

endheader
time	pelvis_tilt	pelvis_list	pelvis_rotation	pelvis_tx	pelvis_ty	pelvis_tz	hip_flexion_r	hip_adduction_r	hip_rotation_r	knee_angle_r	knee_adduction_r	knee_angle_r_beta	ankle_angle_r	subtalar_angle_r	mtp_angle_r	hip_flexion_l	hip_adduction_l	hip_rotation_l	knee_angle_l	knee_adduction_l	knee_angle_l_beta	ankle_angle_l	subtalar_angle_l	mtp_angle_l	lumbar_extension	lumbar_bending	lumbar_rotation	arm_flex_r	arm_add_r	arm_rot_r	elbow_flex_r	pro_sup_r	wrist_flex_r	wrist_dev_r	arm_flex_l	arm_add_l	arm_rot_l	elbow_flex_l	pro_sup_l	wrist_flex_l	wrist_dev_l
      1.98000000	     16.07276625	     -1.26546819	     -1.77822127	      1.00904045	      0.86531118	     -0.19875687	     -0.07979808	      0.53897830	     -8.56790300	     62.45201932	     -9.38119170	      1.08999336	     14.65636434	    -17.54477660	     -7.50148864	    -15.45106429	      1.23990238	     -6.64499506	      8.42197486	      3.55647649	      0.14699119	     16.07705815	     -2.50578415	     -7.50148864	    -30.07032819	      0.39321339	      3.58593016	      2.75686418	     -7.34401813	     -1.75255927	     29.75859359	     90.00000001	      0.00000000	      0.00000000	     10.54988983	     -6.00340676	     -7.92077268	     30.42095868	     90.00000001	      0.00000000	      0.00000000
      1.99000000	     16.05861125	     -1.46099243	     -1.35467265	      1.01917797	      0.86547017	     -0.19988448	      1.25316727	      0.94537266	     -8.24808550	     61.16003559	     -8.65236027	      1.06744399	     15.66023057	    -17.76120274	     -7.50145498	    -16.62265906	      1.00095028	     -6.53616642	      7.47067203	      3.63619193	      0.13038782	     16.55978347	     -1.41728674	     -7.50145498	    -30.10056821	      0.81335689	      3.25194977	      1.98336890	     -7.20244144	     -2.46808631	     29.25925095	     90.00000001	      0.00000000	      0.00000000	     11.61993049	     -6.40389200	     -7.00726238	     31.46990216	     90.00000001	      0.00000000	      0.00000000
      2.00000000	     16.05367546	     -1.60458163	     -0.91114018	      1.02945885	      0.86544214	     -0.20107096	      2.46322026	      1.21580114	     -7.92551400	     59.54845082	     -7.79784397	      1.03931653	     16.30414053	    -17.91560017	     -7.50142026	    -17.75258739	      0.80413667	     -6.58334360	      6.65220425	      3.68896590	      0.11610287	     16.95245988	     -0.50900648	     -7.50142026	    -30.09643688	      1.19597088	      2.90955930	      1.10467412	     -7.06498663	     -3.21712154	     28.95469605	     90.00000001	      0.00000000	      0.00000000	     12.64272566	     -6.77331595	     -5.98451048	     32.60180420	     90.00000001	      0.00000000	      0.00000000
      2.01000000	     16.21745163	     -1.84540474	     -0.42462045	      1.03985605	      0.86547790	     -0.20200270	      3.31575636	      1.62827851	     -7.65474931	     57.49735383	     -6.97585946	      1.00351814	     16.48615090	    -17.91660116	     -7.50133962	    -19.08565511	      0.36892057	     -6.70969207	      5.85195735	      3.94288877	      0.10213592	     17.18739848	      0.26737694	     -7.50133962	    -30.28619600	      1.65305075	      2.69651365	      0.16202555	     -6.81990890	     -4.67825357	     28.80706883	     90.00000001	      0.00000000	      0.00000000	     13.54269226	     -7.38559808	     -3.79394924	     34.09243708	     90.00000001	      0.00000000	      0.00000000
      2.02000000	     16.14727498	     -1.90131587	     -0.00397134	      1.05004921	      0.86490739	     -0.20302375	      4.45891455	      1.76142427	     -7.41043124	     55.39891868	     -6.18759482	      0.96689353	     16.88897171	    -17.95178802	     -7.50127172	    -20.06609107	      0.21906939	     -6.78846860	      5.18843822	      4.02664906	      0.09055533	     17.58451580	      1.11658734	     -7.50127172	    -30.22214312	      1.91598720	      2.37838767	     -0.76076846	     -6.69415936	     -5.28991543	     28.66879778	     90.00000001	      0.00000000	      0.00000000	     14.58138339	     -7.74438930	     -2.92294379	     35.24725164	     90.00000001	      0.00000000	      0.00000000
      2.03000000	     16.00654954	     -1.87557790	      0.38157360	      1.06021595	      0.86404117	     -0.20402162	      5.61851898	      1.76723849	     -7.20634980	     53.11347801	     -5.44223466	      0.92700507	     17.25754197	    -17.95015930	     -7.50123447	    -20.93327935	      0.16283694	     -6.84058619	      4.59046611	      4.09402131	      0.08011875	     18.06056738	      1.97225046	     -7.50123447	    -30.07938256	      2.08173001	      2.03872180	     -1.67748059	     -6.60869828	     -5.63377020	     28.57311218	     90.00000001	      0.00000000	      0.00000000	     15.64778548	     -8.01500089	     -2.44294918	     36.31266513	     90.00000001	      0.00000000	      0.00000000
      2.04000000	     16.00779023	     -1.93874611	      0.75207066	      1.07045185	      0.86322614	     -0.20479093	      6.47473090	      1.90339954	     -7.12187080	     50.49435857	     -4.81043769	      0.88129281	     17.32754945	    -17.94608122	     -7.50119463	    -21.98043729	     -0.03755117	     -7.00226680	      3.99695733	      4.23918709	      0.06976007	     18.46040290	      2.82185870	     -7.50119463	    -30.09124444	      2.30635315	      1.80362095	     -2.59817509	     -6.49986486	     -6.07360649	     28.56247394	     90.00000001	      0.00000000	      0.00000000	     16.68817257	     -8.30830327	     -1.74871539	     37.49154719	     90.00000001	      0.00000000	      0.00000000
      2.05000000	     15.98891527	     -1.99136442	      1.10726079	      1.08068162	      0.86222967	     -0.20545064	      7.25930973	      2.03099867	     -7.19090934	     47.64594446	     -4.31871979	      0.83157861	     17.25436029	    -17.82111633	     -7.50115538	    -22.96274028	     -0.24996502	     -7.19989687	      3.50582041	      4.40263168	      0.06118811	     18.85756645	      3.59191183	     -7.50115538	    -30.08043876	      2.50902027	      1.57891597	     -3.48217594	     -6.38279047	     -6.51136585	     28.58594033	     90.00000001	      0.00000000	      0.00000000	     17.71403636	     -8.61289959	     -1.01870181	     38.63909619	     90.00000001	      0.00000000	      0.00000000
